<svg width="16" height="16" viewBox="0 0 16 16" fill="none" xmlns="http://www.w3.org/2000/svg">
<path d="M4.00004 8H4.00671M12 8H12.0067M2.66671 4H13.3334C14.0698 4 14.6667 4.59695 14.6667 5.33333V10.6667C14.6667 11.403 14.0698 12 13.3334 12H2.66671C1.93033 12 1.33337 11.403 1.33337 10.6667V5.33333C1.33337 4.59695 1.93033 4 2.66671 4ZM9.33337 8C9.33337 8.73638 8.73642 9.33333 8.00004 9.33333C7.26366 9.33333 6.66671 8.73638 6.66671 8C6.66671 7.26362 7.26366 6.66667 8.00004 6.66667C8.73642 6.66667 9.33337 7.26362 9.33337 8Z" stroke="#280444" stroke-width="1.5" stroke-linecap="round" stroke-linejoin="round"/>
</svg>
