<svg width="18" height="18" viewBox="0 0 18 18" fill="none" xmlns="http://www.w3.org/2000/svg">
<path opacity="0.35" d="M4.5 9H4.5075M13.5 9H13.5075M3 4.5H15C15.8284 4.5 16.5 5.17157 16.5 6V12C16.5 12.8284 15.8284 13.5 15 13.5H3C2.17157 13.5 1.5 12.8284 1.5 12V6C1.5 5.17157 2.17157 4.5 3 4.5ZM10.5 9C10.5 9.82843 9.82843 10.5 9 10.5C8.17157 10.5 7.5 9.82843 7.5 9C7.5 8.17157 8.17157 7.5 9 7.5C9.82843 7.5 10.5 8.17157 10.5 9Z" stroke="#D8DBDE" stroke-width="1.5" stroke-linecap="round" stroke-linejoin="round"/>
</svg>
