<svg width="32" height="32" viewBox="0 0 32 32" fill="none" xmlns="http://www.w3.org/2000/svg">
<path d="M25.7333 19.7337C26.8 21.867 28 22.667 28 22.667H4C4 22.667 8 20.0003 8 10.667C8 6.26699 11.6 2.66699 16 2.66699C17.3333 2.66699 18.5333 2.93366 19.7333 3.60033M13.7334 28.0003C13.9566 28.4062 14.2847 28.7448 14.6834 28.9806C15.0821 29.2164 15.5368 29.3408 16.0001 29.3408C16.4633 29.3408 16.918 29.2164 17.3167 28.9806C17.7155 28.7448 18.0436 28.4062 18.2667 28.0003M20 10.667H28M24 6.66699V14.667" stroke="#4F008C" stroke-width="2" stroke-linecap="round" stroke-linejoin="round"/>
</svg>
