<svg width="18" height="18" viewBox="0 0 18 18" fill="none" xmlns="http://www.w3.org/2000/svg">
<g clip-path="url(#clip0_1292_38233)">
<path opacity="0.35" d="M4.5 16.5V3C4.5 2.60218 4.65804 2.22064 4.93934 1.93934C5.22064 1.65804 5.60218 1.5 6 1.5H12C12.3978 1.5 12.7794 1.65804 13.0607 1.93934C13.342 2.22064 13.5 2.60218 13.5 3V16.5M4.5 16.5H13.5M4.5 16.5H3C2.60218 16.5 2.22064 16.342 1.93934 16.0607C1.65804 15.7794 1.5 15.3978 1.5 15V10.5C1.5 10.1022 1.65804 9.72064 1.93934 9.43934C2.22064 9.15804 2.60218 9 3 9H4.5M13.5 16.5H15C15.3978 16.5 15.7794 16.342 16.0607 16.0607C16.342 15.7794 16.5 15.3978 16.5 15V8.25C16.5 7.85218 16.342 7.47064 16.0607 7.18934C15.7794 6.90804 15.3978 6.75 15 6.75H13.5M7.5 4.5H10.5M7.5 7.5H10.5M7.5 10.5H10.5M7.5 13.5H10.5" stroke="#D8DBDE" stroke-width="1.5" stroke-linecap="round" stroke-linejoin="round"/>
</g>
<defs>
<clipPath id="clip0_1292_38233">
<rect width="18" height="18" fill="white"/>
</clipPath>
</defs>
</svg>
