<svg width="18" height="18" viewBox="0 0 18 18" fill="none" xmlns="http://www.w3.org/2000/svg">
<g clip-path="url(#clip0_1292_38196)">
<path opacity="0.35" d="M13.5674 7.77759C14.2764 8.04191 14.9073 8.48074 15.4017 9.05349C15.8961 9.62624 16.2382 10.3144 16.3962 11.0544C16.5542 11.7944 16.5231 12.5622 16.3057 13.287C16.0883 14.0117 15.6916 14.67 15.1525 15.2008C14.6133 15.7316 13.9489 16.118 13.2209 16.324C12.4928 16.5301 11.7246 16.5492 10.9871 16.3797C10.2497 16.2101 9.56697 15.8574 9.002 15.3541C8.43704 14.8508 8.00811 14.2131 7.75488 13.5001M5.25 4.5H6V7.5M12.5324 10.4099L13.0574 10.9424L10.9424 13.0574M10.5 6C10.5 8.48528 8.48528 10.5 6 10.5C3.51472 10.5 1.5 8.48528 1.5 6C1.5 3.51472 3.51472 1.5 6 1.5C8.48528 1.5 10.5 3.51472 10.5 6Z" stroke="#D8DBDE" stroke-width="1.5" stroke-linecap="round" stroke-linejoin="round"/>
</g>
<defs>
<clipPath id="clip0_1292_38196">
<rect width="18" height="18" fill="white"/>
</clipPath>
</defs>
</svg>
