<svg width="16" height="16" viewBox="0 0 16 16" fill="none" xmlns="http://www.w3.org/2000/svg">
<g clip-path="url(#clip0_1295_43356)">
<path d="M11.3334 12.0002H12M8.00004 12.0002H8.66671M4.66671 12.0002H5.33337M1.33337 13.3335C1.33337 13.6871 1.47385 14.0263 1.7239 14.2763C1.97395 14.5264 2.31309 14.6668 2.66671 14.6668H13.3334C13.687 14.6668 14.0261 14.5264 14.2762 14.2763C14.5262 14.0263 14.6667 13.6871 14.6667 13.3335V5.3335L10 8.66683V5.3335L5.33337 8.66683V2.66683C5.33337 2.31321 5.1929 1.97407 4.94285 1.72402C4.6928 1.47397 4.35366 1.3335 4.00004 1.3335H2.66671C2.31309 1.3335 1.97395 1.47397 1.7239 1.72402C1.47385 1.97407 1.33337 2.31321 1.33337 2.66683V13.3335Z" stroke="#280444" stroke-width="1.5" stroke-linecap="round" stroke-linejoin="round"/>
</g>
<defs>
<clipPath id="clip0_1295_43356">
<rect width="16" height="16" fill="white"/>
</clipPath>
</defs>
</svg>
