<svg width="18" height="18" viewBox="0 0 18 18" fill="none" xmlns="http://www.w3.org/2000/svg">
<g clip-path="url(#clip0_1292_38219)">
<path opacity="0.35" d="M9.00018 7.5C8.60235 7.5 8.22082 7.65804 7.93952 7.93934C7.65821 8.22064 7.50018 8.60217 7.50018 9C7.50018 9.765 7.42518 10.8825 7.30518 12M10.5 9.84009C10.5 11.6251 10.5 14.6251 9.75 16.5001M12.9675 15.765C13.0575 15.315 13.29 14.04 13.3425 13.5M1.5 9C1.5 7.42588 1.99528 5.89166 2.91568 4.61467C3.83609 3.33768 5.13495 2.38266 6.62829 1.88488C8.12163 1.3871 9.73374 1.3718 11.2363 1.84115C12.7388 2.3105 14.0555 3.2407 15 4.5M1.5 12H1.5075M16.3499 12C16.4999 10.5 16.4481 7.9845 16.3499 7.5M3.75 14.625C4.125 13.5 4.5 11.25 4.5 9C4.49924 8.48915 4.58547 7.9819 4.755 7.5M6.48743 16.5C6.64493 16.005 6.82493 15.51 6.91493 15M6.75 5.09996C7.4343 4.70488 8.21056 4.49694 9.00072 4.49707C9.79088 4.4972 10.5671 4.70538 11.2513 5.10068C11.9354 5.49598 12.5034 6.06446 12.8982 6.74894C13.2929 7.43343 13.5005 8.2098 13.5 8.99996V10.5" stroke="#D8DBDE" stroke-width="1.5" stroke-linecap="round" stroke-linejoin="round"/>
</g>
<defs>
<clipPath id="clip0_1292_38219">
<rect width="18" height="18" fill="white"/>
</clipPath>
</defs>
</svg>
