<svg width="18" height="18" viewBox="0 0 18 18" fill="none" xmlns="http://www.w3.org/2000/svg">
<path opacity="0.35" d="M7.725 15.0001H3C2.60218 15.0001 2.22064 14.842 1.93934 14.5607C1.65804 14.2794 1.5 13.8979 1.5 13.5001V3.75007C1.5 3.35225 1.65804 2.97072 1.93934 2.68941C2.22064 2.40811 2.60218 2.25007 3 2.25007H5.925C6.17586 2.24761 6.42334 2.30811 6.64477 2.42604C6.86621 2.54396 7.05453 2.71554 7.1925 2.92507L7.8 3.82507C7.93658 4.03247 8.12252 4.20271 8.34113 4.32052C8.55973 4.43834 8.80417 4.50003 9.0525 4.50007H15C15.3978 4.50007 15.7794 4.65811 16.0607 4.93941C16.342 5.22072 16.5 5.60225 16.5 6.00007V8.47507M16.275 14.5501L15.6 14.3251M11.4 12.6751L10.725 12.4501M12.4501 16.275L12.6751 15.6M14.3251 11.4L14.5501 10.725M14.7 16.275L14.4 15.525M12.5999 11.475L12.2999 10.725M10.725 14.7L11.475 14.4M15.525 12.5999L16.275 12.2999M15.75 13.5C15.75 14.7426 14.7426 15.75 13.5 15.75C12.2574 15.75 11.25 14.7426 11.25 13.5C11.25 12.2574 12.2574 11.25 13.5 11.25C14.7426 11.25 15.75 12.2574 15.75 13.5Z" stroke="#D8DBDE" stroke-width="1.5" stroke-linecap="round" stroke-linejoin="round"/>
</svg>
