<svg width="18" height="18" viewBox="0 0 18 18" fill="none" xmlns="http://www.w3.org/2000/svg">
<path opacity="0.35" d="M9.00012 9.75V1.5L15.0001 4.5L9.00012 7.5M15.421 7.66641C15.8201 8.89652 15.8575 10.2154 15.5286 11.4661C15.1997 12.7168 14.5185 13.8467 13.5659 14.7214C12.6134 15.5961 11.4296 16.1788 10.1554 16.4C8.88127 16.6213 7.57036 16.4719 6.37867 15.9696C5.18698 15.4673 4.16467 14.6332 3.43336 13.5666C2.70206 12.5 2.29255 11.2458 2.25356 9.95311C2.21456 8.66046 2.54772 7.38383 3.2134 6.27508C3.87908 5.16633 4.84925 4.27215 6.0085 3.69891M6.00154 7.4978C5.62572 7.99807 5.38105 8.58442 5.28983 9.20345C5.1986 9.82247 5.26372 10.4545 5.47925 11.0419C5.69477 11.6293 6.05386 12.1535 6.52379 12.5666C6.99372 12.9797 7.55956 13.2687 8.16974 13.4072C8.77993 13.5457 9.41507 13.5293 10.0173 13.3595C10.6195 13.1897 11.1697 12.8719 11.6177 12.4351C12.0657 11.9983 12.3973 11.4563 12.5822 10.8586C12.7672 10.2608 12.7996 9.62629 12.6765 9.0128" stroke="#D8DBDE" stroke-width="1.5" stroke-linecap="round" stroke-linejoin="round"/>
</svg>
