<svg width="18" height="18" viewBox="0 0 18 18" fill="none" xmlns="http://www.w3.org/2000/svg">
<g clip-path="url(#clip0_1292_38204)">
<path opacity="0.35" d="M8.25 11.25H9.75C10.1478 11.25 10.5294 11.092 10.8107 10.8107C11.092 10.5294 11.25 10.1478 11.25 9.75C11.25 9.35218 11.092 8.97064 10.8107 8.68934C10.5294 8.40804 10.1478 8.25 9.75 8.25H7.5C7.05 8.25 6.675 8.4 6.45 8.7L2.25 12.75M5.25 15.75L6.45 14.7C6.675 14.4 7.05 14.25 7.5 14.25H10.5C11.325 14.25 12.075 13.95 12.6 13.35L16.05 10.05C16.3394 9.77652 16.5083 9.39924 16.5196 9.0012C16.5308 8.60315 16.3835 8.21694 16.11 7.92752C15.8365 7.6381 15.4592 7.46919 15.0612 7.45794C14.6631 7.44668 14.2769 7.59402 13.9875 7.86752L10.8375 10.7925M1.5 12L6 16.5M14.1751 6.75007C14.1751 7.95129 13.2013 8.92507 12.0001 8.92507C10.7989 8.92507 9.82507 7.95129 9.82507 6.75007C9.82507 5.54885 10.7989 4.57507 12.0001 4.57507C13.2013 4.57507 14.1751 5.54885 14.1751 6.75007ZM6.75 3.75C6.75 4.99264 5.74264 6 4.5 6C3.25736 6 2.25 4.99264 2.25 3.75C2.25 2.50736 3.25736 1.5 4.5 1.5C5.74264 1.5 6.75 2.50736 6.75 3.75Z" stroke="#D8DBDE" stroke-width="1.5" stroke-linecap="round" stroke-linejoin="round"/>
</g>
<defs>
<clipPath id="clip0_1292_38204">
<rect width="18" height="18" fill="white"/>
</clipPath>
</defs>
</svg>
