<svg width="18" height="18" viewBox="0 0 18 18" fill="none" xmlns="http://www.w3.org/2000/svg">
<g clip-path="url(#clip0_1292_38206)">
<path opacity="0.35" d="M1.5 9H3.75M3.75 9C3.75 11.8995 6.10051 14.25 9 14.25M3.75 9C3.75 6.10051 6.10051 3.75 9 3.75M14.25 9H16.5M14.25 9C14.25 11.8995 11.8995 14.25 9 14.25M14.25 9C14.25 6.10051 11.8995 3.75 9 3.75M9 1.5V3.75M9 14.25V16.5M11.25 9C11.25 10.2426 10.2426 11.25 9 11.25C7.75736 11.25 6.75 10.2426 6.75 9C6.75 7.75736 7.75736 6.75 9 6.75C10.2426 6.75 11.25 7.75736 11.25 9Z" stroke="#D8DBDE" stroke-width="1.5" stroke-linecap="round" stroke-linejoin="round"/>
</g>
<defs>
<clipPath id="clip0_1292_38206">
<rect width="18" height="18" fill="white"/>
</clipPath>
</defs>
</svg>
