<svg width="18" height="18" viewBox="0 0 18 18" fill="none" xmlns="http://www.w3.org/2000/svg">
<path opacity="0.35" d="M12 12H16.5M14.25 9.75V14.25M15.75 7.49993V5.99993C15.7497 5.73688 15.6803 5.47853 15.5487 5.2508C15.417 5.02306 15.2278 4.83395 15 4.70243L9.75 1.70243C9.52197 1.57077 9.2633 1.50146 9 1.50146C8.7367 1.50146 8.47803 1.57077 8.25 1.70243L3 4.70243C2.7722 4.83395 2.58299 5.02306 2.45135 5.2508C2.31971 5.47853 2.25027 5.73688 2.25 5.99993V11.9999C2.25027 12.263 2.31971 12.5213 2.45135 12.7491C2.58299 12.9768 2.7722 13.1659 3 13.2974L8.25 16.2974C8.47803 16.4291 8.7367 16.4984 9 16.4984C9.2633 16.4984 9.52197 16.4291 9.75 16.2974L11.25 15.4424M5.625 3.20251L12.375 7.06501M2.46753 5.25L9.00003 9M9.00003 9L15.5325 5.25M9.00003 9L9 16.5" stroke="#D8DBDE" stroke-width="1.5" stroke-linecap="round" stroke-linejoin="round"/>
</svg>
