<svg width="16" height="16" viewBox="0 0 16 16" fill="none" xmlns="http://www.w3.org/2000/svg">
<g clip-path="url(#clip0_1295_43348)">
<path d="M14.1399 10.5935C13.7158 11.5965 13.0525 12.4804 12.2079 13.1677C11.3633 13.8551 10.3631 14.3252 9.2949 14.5367C8.22668 14.7483 7.12289 14.695 6.08004 14.3814C5.03719 14.0678 4.08703 13.5036 3.31262 12.738C2.53822 11.9724 1.96315 11.0287 1.6377 9.98951C1.31225 8.95031 1.24632 7.84721 1.44568 6.77664C1.64503 5.70607 2.10361 4.70063 2.78131 3.84823C3.45901 2.99584 4.3352 2.32243 5.33328 1.88688M14.6667 8.00016C14.6667 7.12468 14.4942 6.25778 14.1592 5.44894C13.8242 4.6401 13.3331 3.90517 12.714 3.28612C12.095 2.66706 11.3601 2.176 10.5512 1.84097C9.74239 1.50593 8.87548 1.3335 8 1.3335V8.00016H14.6667Z" stroke="#280444" stroke-width="1.5" stroke-linecap="round" stroke-linejoin="round"/>
</g>
<defs>
<clipPath id="clip0_1295_43348">
<rect width="16" height="16" fill="white"/>
</clipPath>
</defs>
</svg>
