<svg width="18" height="18" viewBox="0 0 18 18" fill="none" xmlns="http://www.w3.org/2000/svg">
<path opacity="0.35" d="M6.09009 6.09009L9.00009 9.00009M15.0001 3L6.09009 11.91M11.0999 11.1L14.9999 15M6.75 4.5C6.75 5.74264 5.74264 6.75 4.5 6.75C3.25736 6.75 2.25 5.74264 2.25 4.5C2.25 3.25736 3.25736 2.25 4.5 2.25C5.74264 2.25 6.75 3.25736 6.75 4.5ZM6.75 13.5C6.75 14.7426 5.74264 15.75 4.5 15.75C3.25736 15.75 2.25 14.7426 2.25 13.5C2.25 12.2574 3.25736 11.25 4.5 11.25C5.74264 11.25 6.75 12.2574 6.75 13.5Z" stroke="#D8DBDE" stroke-width="1.5" stroke-linecap="round" stroke-linejoin="round"/>
</svg>
