<svg width="18" height="18" viewBox="0 0 18 18" fill="none" xmlns="http://www.w3.org/2000/svg">
<path opacity="0.35" d="M15 5.25H8.25M10.5 12.75H3.75M10.5 12.75C10.5 13.9926 11.5074 15 12.75 15C13.9926 15 15 13.9926 15 12.75C15 11.5074 13.9926 10.5 12.75 10.5C11.5074 10.5 10.5 11.5074 10.5 12.75ZM7.5 5.25C7.5 6.49264 6.49264 7.5 5.25 7.5C4.00736 7.5 3 6.49264 3 5.25C3 4.00736 4.00736 3 5.25 3C6.49264 3 7.5 4.00736 7.5 5.25Z" stroke="#D8DBDE" stroke-width="1.5" stroke-linecap="round" stroke-linejoin="round"/>
</svg>
