<svg width="18" height="18" viewBox="0 0 18 18" fill="none" xmlns="http://www.w3.org/2000/svg">
<path opacity="0.35" d="M3.75 16.5H14.25M10.5 9.75V6.375C10.5 5.25 11.25 5.25 11.25 3.75C11.25 3.15326 11.0129 2.58097 10.591 2.15901C10.169 1.73705 9.59674 1.5 9 1.5C7.755 1.5 6.75 2.25 6.75 3.75C6.75 5.25 7.5 5.25 7.5 6.375V9.75M14.4525 10.2975C14.2781 10.1235 14.071 9.98558 13.8432 9.89163C13.6155 9.79769 13.3714 9.74956 13.125 9.75H4.875C4.37772 9.75 3.90081 9.94755 3.54917 10.2992C3.19754 10.6508 3 11.1277 3 11.625V12.75C3 12.9489 3.07902 13.1397 3.21967 13.2803C3.36032 13.421 3.55109 13.5 3.75 13.5H14.25C14.4489 13.5 14.6397 13.421 14.7803 13.2803C14.921 13.1397 15 12.9489 15 12.75V11.625C15 11.13 14.805 10.65 14.4525 10.2975Z" stroke="#D8DBDE" stroke-width="1.5" stroke-linecap="round" stroke-linejoin="round"/>
</svg>
