<svg width="18" height="18" viewBox="0 0 18 18" fill="none" xmlns="http://www.w3.org/2000/svg">
<g opacity="0.35">
<path d="M15 3H3C2.17157 3 1.5 3.67157 1.5 4.5V6C1.5 6.82843 2.17157 7.5 3 7.5H15C15.8284 7.5 16.5 6.82843 16.5 6V4.5C16.5 3.67157 15.8284 3 15 3Z" stroke="#D8DBDE" stroke-width="1.5" stroke-linecap="round" stroke-linejoin="round"/>
<path d="M15 10.5H3C2.17157 10.5 1.5 11.1716 1.5 12V13.5C1.5 14.3284 2.17157 15 3 15H15C15.8284 15 16.5 14.3284 16.5 13.5V12C16.5 11.1716 15.8284 10.5 15 10.5Z" stroke="#D8DBDE" stroke-width="1.5" stroke-linecap="round" stroke-linejoin="round"/>
</g>
</svg>
