<svg width="18" height="18" viewBox="0 0 18 18" fill="none" xmlns="http://www.w3.org/2000/svg">
<path opacity="0.35" d="M11.025 4.7248C10.8876 4.865 10.8106 5.05349 10.8106 5.2498C10.8106 5.44612 10.8876 5.63461 11.025 5.7748L12.225 6.9748C12.3652 7.11222 12.5537 7.18919 12.75 7.18919C12.9463 7.18919 13.1348 7.11222 13.275 6.9748L16.1025 4.1473C16.4796 4.98069 16.5938 5.90923 16.4299 6.80916C16.2659 7.70909 15.8315 8.53769 15.1847 9.18451C14.5379 9.83134 13.7093 10.2657 12.8094 10.4296C11.9094 10.5936 10.9809 10.4794 10.1475 10.1023L4.96501 15.2848C4.66664 15.5832 4.26197 15.7508 3.84001 15.7508C3.41806 15.7508 3.01338 15.5832 2.71501 15.2848C2.41665 14.9864 2.24902 14.5818 2.24902 14.1598C2.24902 13.7378 2.41665 13.3332 2.71501 13.0348L7.89751 7.8523C7.52039 7.01891 7.4062 6.09038 7.57017 5.19044C7.73414 4.29051 8.16848 3.46192 8.8153 2.81509C9.46213 2.16827 10.2907 1.73393 11.1907 1.56996C12.0906 1.40599 13.0191 1.52018 13.8525 1.8973L11.0325 4.7173L11.025 4.7248Z" stroke="#D8DBDE" stroke-width="1.5" stroke-linecap="round" stroke-linejoin="round"/>
</svg>
