<svg width="30" height="30" viewBox="0 0 30 30" fill="none" xmlns="http://www.w3.org/2000/svg">
<path d="M20.3334 9.66652V16.3332C20.3334 17.394 20.7549 18.4115 21.505 19.1616C22.2551 19.9118 23.2726 20.3332 24.3334 20.3332C25.3943 20.3332 26.4117 19.9118 27.1619 19.1616C27.912 18.4115 28.3334 17.394 28.3334 16.3332V14.9998C28.3334 11.9963 27.3193 9.08065 25.4553 6.72541C23.5913 4.37017 20.9867 2.71328 18.0635 2.0232C15.1402 1.33311 12.0696 1.65026 9.34912 2.92325C6.62863 4.19624 4.41765 6.3505 3.0744 9.037C1.73115 11.7235 1.33433 14.7848 1.94823 17.725C2.56213 20.6652 4.15078 23.312 6.4568 25.2365C8.76281 27.1611 11.6511 28.2506 14.6537 28.3287C17.6562 28.4067 20.5972 27.4687 23.0001 25.6665M20.3334 14.9998C20.3334 17.9454 17.9456 20.3332 15.0001 20.3332C12.0546 20.3332 9.66675 17.9454 9.66675 14.9998C9.66675 12.0543 12.0546 9.6665 15.0001 9.6665C17.9456 9.6665 20.3334 12.0543 20.3334 14.9998Z" stroke="#4F008C" stroke-width="2" stroke-linecap="round" stroke-linejoin="round"/>
</svg>
