<svg width="30" height="30" viewBox="0 0 30 30" fill="none" xmlns="http://www.w3.org/2000/svg">
<path d="M7.00008 28.3332V4.33317C7.00008 3.62593 7.28103 2.94765 7.78113 2.44755C8.28123 1.94746 8.9595 1.6665 9.66675 1.6665H20.3334C21.0407 1.6665 21.7189 1.94746 22.219 2.44755C22.7191 2.94765 23.0001 3.62593 23.0001 4.33317V28.3332M7.00008 28.3332H23.0001M7.00008 28.3332H4.33341C3.62617 28.3332 2.94789 28.0522 2.4478 27.5521C1.9477 27.052 1.66675 26.3737 1.66675 25.6665V17.6665C1.66675 16.9593 1.9477 16.281 2.4478 15.7809C2.94789 15.2808 3.62617 14.9998 4.33341 14.9998H7.00008M23.0001 28.3332H25.6667C26.374 28.3332 27.0523 28.0522 27.5524 27.5521C28.0525 27.052 28.3334 26.3737 28.3334 25.6665V13.6665C28.3334 12.9593 28.0525 12.281 27.5524 11.7809C27.0523 11.2808 26.374 10.9998 25.6667 10.9998H23.0001M12.3334 6.99984H17.6667M12.3334 12.3332H17.6667M12.3334 17.6665H17.6667M12.3334 22.9998H17.6667" stroke="#4F008C" stroke-width="2" stroke-linecap="round" stroke-linejoin="round"/>
</svg>
