<svg width="24" height="30" viewBox="0 0 24 30" fill="none" xmlns="http://www.w3.org/2000/svg">
<path d="M14.6666 1.66699V7.00033C14.6666 7.70757 14.9475 8.38585 15.4476 8.88594C15.9477 9.38604 16.626 9.66699 17.3333 9.66699H22.6666M6.66658 15.0003H17.3333M9.33325 13.667V16.3337M6.66658 21.667H17.3333M14.6666 20.3337V23.0003M15.9999 1.66699H3.99992C3.29267 1.66699 2.6144 1.94794 2.1143 2.44804C1.6142 2.94814 1.33325 3.62641 1.33325 4.33366V25.667C1.33325 26.3742 1.6142 27.0525 2.1143 27.5526C2.6144 28.0527 3.29267 28.3337 3.99992 28.3337H19.9999C20.7072 28.3337 21.3854 28.0527 21.8855 27.5526C22.3856 27.0525 22.6666 26.3742 22.6666 25.667V8.33366L15.9999 1.66699Z" stroke="#4F008C" stroke-width="2" stroke-linecap="round" stroke-linejoin="round"/>
</svg>
