<svg width="24" height="30" viewBox="0 0 24 30" fill="none" xmlns="http://www.w3.org/2000/svg">
<path d="M14.6668 1.66699V7.00033C14.6668 7.70757 14.9478 8.38585 15.4479 8.88594C15.948 9.38604 16.6263 9.66699 17.3335 9.66699H22.6668M8.00016 16.3337V15.0003H16.0002V16.3337M12.0002 15.0003V23.0003M10.6668 23.0003H13.3335M16.0002 1.66699H4.00016C3.29292 1.66699 2.61464 1.94794 2.11454 2.44804C1.61445 2.94814 1.3335 3.62641 1.3335 4.33366V25.667C1.3335 26.3742 1.61445 27.0525 2.11454 27.5526C2.61464 28.0527 3.29292 28.3337 4.00016 28.3337H20.0002C20.7074 28.3337 21.3857 28.0527 21.8858 27.5526C22.3859 27.0525 22.6668 26.3742 22.6668 25.667V8.33366L16.0002 1.66699Z" stroke="#4F008C" stroke-width="2" stroke-linecap="round" stroke-linejoin="round"/>
</svg>
