<svg width="32" height="32" viewBox="0 0 32 32" fill="none" xmlns="http://www.w3.org/2000/svg">
<path d="M18.6666 2.66699V8.00033C18.6666 8.70757 18.9475 9.38585 19.4476 9.88594C19.9477 10.386 20.626 10.667 21.3333 10.667H26.6666M13.3333 16.0003C12.9796 16.0003 12.6405 16.1408 12.3904 16.3909C12.1404 16.6409 11.9999 16.98 11.9999 17.3337V18.667C11.9999 19.0206 11.8594 19.3598 11.6094 19.6098C11.3593 19.8598 11.0202 20.0003 10.6666 20.0003C11.0202 20.0003 11.3593 20.1408 11.6094 20.3909C11.8594 20.6409 11.9999 20.98 11.9999 21.3337V22.667C11.9999 23.0206 12.1404 23.3598 12.3904 23.6098C12.6405 23.8599 12.9796 24.0003 13.3333 24.0003M18.6666 24.0003C19.0202 24.0003 19.3593 23.8599 19.6094 23.6098C19.8594 23.3598 19.9999 23.0206 19.9999 22.667V21.3337C19.9999 20.98 20.1404 20.6409 20.3904 20.3909C20.6405 20.1408 20.9796 20.0003 21.3333 20.0003C20.9796 20.0003 20.6405 19.8598 20.3904 19.6098C20.1404 19.3598 19.9999 19.0206 19.9999 18.667V17.3337C19.9999 16.98 19.8594 16.6409 19.6094 16.3909C19.3593 16.1408 19.0202 16.0003 18.6666 16.0003M19.9999 2.66699H7.99992C7.29267 2.66699 6.6144 2.94794 6.1143 3.44804C5.6142 3.94814 5.33325 4.62641 5.33325 5.33366V26.667C5.33325 27.3742 5.6142 28.0525 6.1143 28.5526C6.6144 29.0527 7.29267 29.3337 7.99992 29.3337H23.9999C24.7072 29.3337 25.3854 29.0527 25.8855 28.5526C26.3856 28.0525 26.6666 27.3742 26.6666 26.667V9.33366L19.9999 2.66699Z" stroke="#4F008C" stroke-width="2" stroke-linecap="round" stroke-linejoin="round"/>
</svg>
