<svg width="26" height="30" viewBox="0 0 26 30" fill="none" xmlns="http://www.w3.org/2000/svg">
<path d="M16.6667 1.6665V6.99984C16.6667 7.70708 16.9476 8.38536 17.4477 8.88546C17.9478 9.38555 18.6261 9.6665 19.3333 9.6665H24.6667M2.26641 16.1998L1.06641 15.6665M2.26641 19.1333L1.06641 19.6666M4.236 27.6665C4.71973 28.0931 5.34169 28.33 5.98667 28.3332H22C22.7072 28.3332 23.3855 28.0522 23.8856 27.5521C24.3857 27.052 24.6667 26.3737 24.6667 25.6665V8.33317L18 1.6665H6C5.29276 1.6665 4.61448 1.94746 4.11438 2.44755C3.61428 2.94765 3.33333 3.62593 3.33333 4.33317V7.6665M4.53333 13.9332L4 12.7332M4.53333 21.3999L4 22.5999M8.00013 12.7332L7.4668 13.9332M8.00013 22.5999L7.4668 21.3999M10.9331 15.6665L9.73307 16.1998M10.9331 19.6666L9.73307 19.1333M10 17.6665C10 19.8756 8.20914 21.6665 6 21.6665C3.79086 21.6665 2 19.8756 2 17.6665C2 15.4574 3.79086 13.6665 6 13.6665C8.20914 13.6665 10 15.4574 10 17.6665Z" stroke="#4F008C" stroke-width="2" stroke-linecap="round" stroke-linejoin="round"/>
</svg>
