<svg width="30" height="25" viewBox="0 0 30 25" fill="none" xmlns="http://www.w3.org/2000/svg">
<path d="M6.99996 15.6667L8.93329 11.8C9.15591 11.3582 9.49704 10.9871 9.91853 10.728C10.34 10.469 10.8252 10.3324 11.32 10.3333H25.6666M25.6666 10.3333C26.074 10.3326 26.4761 10.4252 26.8421 10.6041C27.2081 10.783 27.5283 11.0433 27.7781 11.3652C28.0278 11.687 28.2005 12.0618 28.2829 12.4607C28.3653 12.8597 28.3551 13.2722 28.2533 13.6667L26.1866 21.6667C26.0386 22.2399 25.7041 22.7475 25.2358 23.1096C24.7675 23.4717 24.192 23.6677 23.6 23.6667H4.33329C3.62605 23.6667 2.94777 23.3857 2.44767 22.8856C1.94758 22.3855 1.66663 21.7072 1.66663 21V3.66667C1.66663 2.2 2.86663 1 4.33329 1H9.57329C10.0125 1.00227 10.4444 1.113 10.8305 1.32235C11.2166 1.53169 11.5451 1.83317 11.7866 2.2L12.88 3.8C13.1215 4.16683 13.45 4.46831 13.8361 4.67765C14.2222 4.887 14.6541 4.99773 15.0933 5H23C23.7072 5 24.3855 5.28095 24.8856 5.78105C25.3857 6.28115 25.6666 6.95942 25.6666 7.66667V10.3333ZM19 17C19 17.7364 18.403 18.3333 17.6666 18.3333C16.9302 18.3333 16.3333 17.7364 16.3333 17C16.3333 16.2636 16.9302 15.6667 17.6666 15.6667C18.403 15.6667 19 16.2636 19 17Z" stroke="#4F008C" stroke-width="2" stroke-linecap="round" stroke-linejoin="round"/>
</svg>
