<svg width="30" height="30" viewBox="0 0 30 30" fill="none" xmlns="http://www.w3.org/2000/svg">
<path d="M28.3334 14.9998C28.3334 22.3636 22.3639 28.3332 15.0001 28.3332M28.3334 14.9998C28.3334 7.63604 22.3639 1.6665 15.0001 1.6665M28.3334 14.9998H1.66675M15.0001 28.3332C7.63628 28.3332 1.66675 22.3636 1.66675 14.9998M15.0001 28.3332C11.5764 24.7383 9.66675 19.9642 9.66675 14.9998C9.66675 10.0355 11.5764 5.26138 15.0001 1.6665M15.0001 28.3332C18.4238 24.7383 20.3334 19.9642 20.3334 14.9998C20.3334 10.0355 18.4238 5.26138 15.0001 1.6665M1.66675 14.9998C1.66675 7.63604 7.63628 1.6665 15.0001 1.6665" stroke="#4F008C" stroke-width="2" stroke-linecap="round" stroke-linejoin="round"/>
</svg>
