<svg width="26" height="26" viewBox="0 0 26 26" fill="none" xmlns="http://www.w3.org/2000/svg">
<path d="M9 1H2.33333C1.59695 1 1 1.59695 1 2.33333V23.6667C1 24.403 1.59695 25 2.33333 25H9C9.73638 25 10.3333 24.403 10.3333 23.6667V2.33333C10.3333 1.59695 9.73638 1 9 1Z" stroke="#4F008C" stroke-width="2" stroke-linecap="round" stroke-linejoin="round"/>
<path d="M23.6667 1H17C16.2636 1 15.6667 1.59695 15.6667 2.33333V9C15.6667 9.73638 16.2636 10.3333 17 10.3333H23.6667C24.403 10.3333 25 9.73638 25 9V2.33333C25 1.59695 24.403 1 23.6667 1Z" stroke="#4F008C" stroke-width="2" stroke-linecap="round" stroke-linejoin="round"/>
<path d="M23.6667 15.6667H17C16.2636 15.6667 15.6667 16.2636 15.6667 17V23.6667C15.6667 24.403 16.2636 25 17 25H23.6667C24.403 25 25 24.403 25 23.6667V17C25 16.2636 24.403 15.6667 23.6667 15.6667Z" stroke="#4F008C" stroke-width="2" stroke-linecap="round" stroke-linejoin="round"/>
</svg>
