<svg width="32" height="32" viewBox="0 0 32 32" fill="none" xmlns="http://www.w3.org/2000/svg">
<path d="M18.6667 5.33333H28M18.6667 12H28M18.6667 20H28M18.6667 26.6667H28M5.33333 4H12C12.7364 4 13.3333 4.59695 13.3333 5.33333V12C13.3333 12.7364 12.7364 13.3333 12 13.3333H5.33333C4.59695 13.3333 4 12.7364 4 12V5.33333C4 4.59695 4.59695 4 5.33333 4ZM5.33333 18.6667H12C12.7364 18.6667 13.3333 19.2636 13.3333 20V26.6667C13.3333 27.403 12.7364 28 12 28H5.33333C4.59695 28 4 27.403 4 26.6667V20C4 19.2636 4.59695 18.6667 5.33333 18.6667Z" stroke="#4F008C" stroke-width="2" stroke-linecap="round" stroke-linejoin="round"/>
</svg>
