<svg width="26" height="26" viewBox="0 0 26 26" fill="none" xmlns="http://www.w3.org/2000/svg">
<path d="M23.6667 1H2.33333C1.59695 1 1 1.59695 1 2.33333V9C1 9.73638 1.59695 10.3333 2.33333 10.3333H23.6667C24.403 10.3333 25 9.73638 25 9V2.33333C25 1.59695 24.403 1 23.6667 1Z" stroke="#4F008C" stroke-width="2" stroke-linecap="round" stroke-linejoin="round"/>
<path d="M11.6667 15.6667H2.33333C1.59695 15.6667 1 16.2636 1 17V23.6667C1 24.403 1.59695 25 2.33333 25H11.6667C12.403 25 13 24.403 13 23.6667V17C13 16.2636 12.403 15.6667 11.6667 15.6667Z" stroke="#4F008C" stroke-width="2" stroke-linecap="round" stroke-linejoin="round"/>
<path d="M23.6667 15.6667H19.6667C18.9303 15.6667 18.3333 16.2636 18.3333 17V23.6667C18.3333 24.403 18.9303 25 19.6667 25H23.6667C24.403 25 25 24.403 25 23.6667V17C25 16.2636 24.403 15.6667 23.6667 15.6667Z" stroke="#4F008C" stroke-width="2" stroke-linecap="round" stroke-linejoin="round"/>
</svg>
