<svg width="26" height="30" viewBox="0 0 26 30" fill="none" xmlns="http://www.w3.org/2000/svg">
<path d="M6.33333 12.3334V8.33337C6.3334 6.86586 6.81767 5.43938 7.71106 4.27514C8.60445 3.11091 9.85702 2.27399 11.2745 1.89416C12.692 1.51434 14.1952 1.61284 15.5511 2.1744C16.9069 2.73595 18.0395 3.72917 18.7733 5.00003M14.3333 20.3333C14.3333 21.0697 13.7364 21.6667 13 21.6667C12.2636 21.6667 11.6667 21.0697 11.6667 20.3333C11.6667 19.597 12.2636 19 13 19C13.7364 19 14.3333 19.597 14.3333 20.3333ZM3.66667 12.3333H22.3333C23.8061 12.3333 25 13.5272 25 15V25.6667C25 27.1394 23.8061 28.3333 22.3333 28.3333H3.66667C2.19391 28.3333 1 27.1394 1 25.6667V15C1 13.5272 2.19391 12.3333 3.66667 12.3333Z" stroke="#4F008C" stroke-width="2" stroke-linecap="round" stroke-linejoin="round"/>
</svg>
