<svg width="30" height="30" viewBox="0 0 30 30" fill="none" xmlns="http://www.w3.org/2000/svg">
<path d="M28.3332 12.3337C28.3332 11.4937 27.9332 10.707 27.2665 10.2003L16.5998 2.20033C16.1382 1.85413 15.5768 1.66699 14.9998 1.66699C14.4229 1.66699 13.8614 1.85413 13.3998 2.20033L2.73317 10.2003C2.40198 10.4487 2.13317 10.7708 1.94803 11.1411C1.76289 11.5114 1.6665 11.9197 1.6665 12.3337M28.3332 12.3337V25.667C28.3332 26.3742 28.0522 27.0525 27.5521 27.5526C27.052 28.0527 26.3737 28.3337 25.6665 28.3337H4.33317C3.62593 28.3337 2.94765 28.0527 2.44755 27.5526C1.94746 27.0525 1.6665 26.3742 1.6665 25.667V12.3337M28.3332 12.3337L16.3732 19.9337C15.9615 20.1916 15.4856 20.3283 14.9998 20.3283C14.5141 20.3283 14.0381 20.1916 13.6265 19.9337L1.6665 12.3337" stroke="#4F008C" stroke-width="2" stroke-linecap="round" stroke-linejoin="round"/>
</svg>
