<svg width="30" height="27" viewBox="0 0 30 27" fill="none" xmlns="http://www.w3.org/2000/svg">
<path d="M28.3334 10.0002V4.00016C28.3334 3.29292 28.0525 2.61464 27.5524 2.11454C27.0523 1.61445 26.374 1.3335 25.6667 1.3335H4.33341C3.62617 1.3335 2.94789 1.61445 2.4478 2.11454C1.9477 2.61464 1.66675 3.29292 1.66675 4.00016V20.0002C1.66675 21.4668 2.86675 22.6668 4.33341 22.6668H21.0001M28.3334 5.3335L16.3734 12.9335C15.9618 13.1914 15.4858 13.3282 15.0001 13.3282C14.5143 13.3282 14.0384 13.1914 13.6267 12.9335L1.66675 5.3335M23.0001 16.3735C23.2667 15.8402 23.6667 15.3068 24.2001 15.0402C24.7523 14.721 25.3969 14.5998 26.0273 14.6968C26.6577 14.7938 27.2361 15.1031 27.6667 15.5735C28.0667 16.1069 28.3334 16.6402 28.3334 17.3068C28.3334 19.0402 25.6667 19.9735 25.6667 19.9735M25.6667 25.3335V25.3468" stroke="#4F008C" stroke-width="2" stroke-linecap="round" stroke-linejoin="round"/>
</svg>
