<svg width="30" height="27" viewBox="0 0 30 27" fill="none" xmlns="http://www.w3.org/2000/svg">
<path d="M28.3332 10.0002V4.00016C28.3332 3.29292 28.0522 2.61464 27.5521 2.11454C27.052 1.61445 26.3737 1.3335 25.6665 1.3335H4.33317C3.62593 1.3335 2.94765 1.61445 2.44755 2.11454C1.94746 2.61464 1.6665 3.29292 1.6665 4.00016V20.0002C1.6665 21.4668 2.8665 22.6668 4.33317 22.6668H20.9998M28.3332 5.3335L16.3732 12.9335C15.9615 13.1914 15.4856 13.3282 14.9998 13.3282C14.5141 13.3282 14.0381 13.1914 13.6265 12.9335L1.6665 5.3335M25.6665 14.6668V20.0002M25.6665 25.3335V25.3468" stroke="#4F008C" stroke-width="2" stroke-linecap="round" stroke-linejoin="round"/>
</svg>
