<svg width="30" height="26" viewBox="0 0 30 26" fill="none" xmlns="http://www.w3.org/2000/svg">
<path d="M15.0001 19.6667V25M9.66675 25H20.3334M4.33341 1H25.6667C27.1395 1 28.3334 2.19391 28.3334 3.66667V17C28.3334 18.4728 27.1395 19.6667 25.6667 19.6667H4.33341C2.86066 19.6667 1.66675 18.4728 1.66675 17V3.66667C1.66675 2.19391 2.86066 1 4.33341 1ZM12.3334 6.33333H17.6667C18.4031 6.33333 19.0001 6.93029 19.0001 7.66667V13C19.0001 13.7364 18.4031 14.3333 17.6667 14.3333H12.3334C11.597 14.3333 11.0001 13.7364 11.0001 13V7.66667C11.0001 6.93029 11.597 6.33333 12.3334 6.33333Z" stroke="#4F008C" stroke-width="2" stroke-linecap="round" stroke-linejoin="round"/>
</svg>
