<svg width="30" height="30" viewBox="0 0 30 30" fill="none" xmlns="http://www.w3.org/2000/svg">
<path d="M6.99984 23.0003H4.33317C3.62593 23.0003 2.94765 22.7194 2.44755 22.2193C1.94746 21.7192 1.6665 21.0409 1.6665 20.3337V13.667C1.6665 12.9597 1.94746 12.2815 2.44755 11.7814C2.94765 11.2813 3.62593 11.0003 4.33317 11.0003H25.6665C26.3737 11.0003 27.052 11.2813 27.5521 11.7814C28.0522 12.2815 28.3332 12.9597 28.3332 13.667V20.3337C28.3332 21.0409 28.0522 21.7192 27.5521 22.2193C27.052 22.7194 26.3737 23.0003 25.6665 23.0003H22.9998M6.99984 11.0003V3.00033C6.99984 2.6467 7.14031 2.30756 7.39036 2.05752C7.64041 1.80747 7.97955 1.66699 8.33317 1.66699H21.6665C22.0201 1.66699 22.3593 1.80747 22.6093 2.05752C22.8594 2.30756 22.9998 2.6467 22.9998 3.00033V11.0003M8.33317 17.667H21.6665C22.4029 17.667 22.9998 18.2639 22.9998 19.0003V27.0003C22.9998 27.7367 22.4029 28.3337 21.6665 28.3337H8.33317C7.59679 28.3337 6.99984 27.7367 6.99984 27.0003V19.0003C6.99984 18.2639 7.59679 17.667 8.33317 17.667Z" stroke="#4F008C" stroke-width="2" stroke-linecap="round" stroke-linejoin="round"/>
</svg>
