<svg width="26" height="28" viewBox="0 0 26 28" fill="none" xmlns="http://www.w3.org/2000/svg">
<path d="M6.33294 22.3333H3.41961C2.99903 22.3346 2.58528 22.227 2.2185 22.0212C1.85173 21.8154 1.54438 21.5183 1.32628 21.1587C1.11682 20.7975 1.00607 20.3876 1.00513 19.97C1.0042 19.5525 1.11311 19.1421 1.32094 18.78L6.59428 9.66667M6.59428 9.66667L8.05738 15.128M6.59428 9.66667L1.13338 11.1307M11.6666 22.3335H22.6039C23.0225 22.3302 23.4332 22.2194 23.7965 22.0115C24.1598 21.8037 24.4636 21.5059 24.6786 21.1468C24.8851 20.7866 24.9938 20.3786 24.9938 19.9635C24.9938 19.5483 24.8851 19.1403 24.6786 18.7801L23.0439 15.9535M11.6666 22.3335L15.6666 18.3333M11.6666 22.3335L15.6666 26.3333M9.4589 4.748L10.9162 2.22534C11.1255 1.86053 11.4255 1.55601 11.7871 1.34132C12.1488 1.12663 12.5598 1.00905 12.9802 1C13.3975 0.999226 13.8076 1.10822 14.1694 1.31604C14.5312 1.52386 14.832 1.8232 15.0416 2.184L20.2989 11.308M20.2989 11.308L14.8372 9.84401M20.2989 11.308L21.7612 5.84668" stroke="#4F008C" stroke-width="2" stroke-linecap="round" stroke-linejoin="round"/>
</svg>
