<svg width="28" height="30" viewBox="0 0 28 30" fill="none" xmlns="http://www.w3.org/2000/svg">
<path d="M14.2933 1.6665H13.7067C12.9994 1.6665 12.3211 1.94746 11.8211 2.44755C11.321 2.94765 11.04 3.62593 11.04 4.33317V4.57317C11.0395 5.0408 10.9161 5.50009 10.6821 5.90495C10.448 6.30982 10.1117 6.64602 9.70667 6.87984L9.13334 7.21317C8.72795 7.44722 8.2681 7.57044 7.8 7.57044C7.3319 7.57044 6.87205 7.44722 6.46667 7.21317L6.26667 7.1065C5.65476 6.75352 4.92779 6.65776 4.24534 6.84025C3.56289 7.02273 2.98074 7.46855 2.62667 8.07984L2.33334 8.5865C1.98035 9.19842 1.88459 9.92539 2.06708 10.6078C2.24957 11.2903 2.69538 11.8724 3.30667 12.2265L3.50667 12.3598C3.9097 12.5925 4.24483 12.9266 4.47874 13.3289C4.71265 13.7313 4.83719 14.1878 4.84 14.6532V15.3332C4.84187 15.8031 4.71954 16.2651 4.48539 16.6725C4.25125 17.0799 3.91361 17.4182 3.50667 17.6532L3.30667 17.7732C2.69538 18.1272 2.24957 18.7094 2.06708 19.3918C1.88459 20.0743 1.98035 20.8013 2.33334 21.4132L2.62667 21.9198C2.98074 22.5311 3.56289 22.9769 4.24534 23.1594C4.92779 23.3419 5.65476 23.2462 6.26667 22.8932L6.46667 22.7865C6.87205 22.5525 7.3319 22.4292 7.8 22.4292C8.2681 22.4292 8.72795 22.5525 9.13334 22.7865L9.70667 23.1198C10.1117 23.3537 10.448 23.6899 10.6821 24.0947C10.9161 24.4996 11.0395 24.9589 11.04 25.4265V25.6665C11.04 26.3737 11.321 27.052 11.8211 27.5521C12.3211 28.0522 12.9994 28.3332 13.7067 28.3332H14.2933C15.0006 28.3332 15.6789 28.0522 16.179 27.5521C16.6791 27.052 16.96 26.3737 16.96 25.6665V25.4265C16.9605 24.9589 17.0839 24.4996 17.318 24.0947C17.552 23.6899 17.8884 23.3537 18.2933 23.1198L18.8667 22.7865C19.2721 22.5525 19.7319 22.4292 20.2 22.4292C20.6681 22.4292 21.128 22.5525 21.5333 22.7865L21.7333 22.8932C22.3452 23.2462 23.0722 23.3419 23.7547 23.1594C24.4371 22.9769 25.0193 22.5311 25.3733 21.9198L25.6667 21.3998C26.0197 20.7879 26.1154 20.061 25.9329 19.3785C25.7504 18.6961 25.3046 18.1139 24.6933 17.7598L24.4933 17.6532C24.0864 17.4182 23.7488 17.0799 23.5146 16.6725C23.2805 16.2651 23.1581 15.8031 23.16 15.3332V14.6665C23.1581 14.1966 23.2805 13.7346 23.5146 13.3272C23.7488 12.9198 24.0864 12.5814 24.4933 12.3465L24.6933 12.2265C25.3046 11.8724 25.7504 11.2903 25.9329 10.6078C26.1154 9.92539 26.0197 9.19842 25.6667 8.5865L25.3733 8.07984C25.0193 7.46855 24.4371 7.02273 23.7547 6.84025C23.0722 6.65776 22.3452 6.75352 21.7333 7.1065L21.5333 7.21317C21.128 7.44722 20.6681 7.57044 20.2 7.57044C19.7319 7.57044 19.2721 7.44722 18.8667 7.21317L18.2933 6.87984C17.8884 6.64602 17.552 6.30982 17.318 5.90495C17.0839 5.50009 16.9605 5.0408 16.96 4.57317V4.33317C16.96 3.62593 16.6791 2.94765 16.179 2.44755C15.6789 1.94746 15.0006 1.6665 14.2933 1.6665Z" stroke="#4F008C" stroke-width="2" stroke-linecap="round" stroke-linejoin="round"/>
<path d="M14 18.9998C16.2091 18.9998 18 17.209 18 14.9998C18 12.7907 16.2091 10.9998 14 10.9998C11.7909 10.9998 10 12.7907 10 14.9998C10 17.209 11.7909 18.9998 14 18.9998Z" stroke="#4F008C" stroke-width="2" stroke-linecap="round" stroke-linejoin="round"/>
</svg>
