<svg width="32" height="32" viewBox="0 0 32 32" fill="none" xmlns="http://www.w3.org/2000/svg">
<path d="M5.33341 13.3337C3.86675 13.3337 2.66675 12.1337 2.66675 10.667V5.33366C2.66675 3.86699 3.86675 2.66699 5.33341 2.66699H10.6667C12.1334 2.66699 13.3334 3.86699 13.3334 5.33366M13.3334 21.3337C11.8667 21.3337 10.6667 20.1337 10.6667 18.667V13.3337C10.6667 11.867 11.8667 10.667 13.3334 10.667H18.6667C20.1334 10.667 21.3334 11.867 21.3334 13.3337M21.3334 18.667H26.6667C28.1395 18.667 29.3334 19.8609 29.3334 21.3337V26.667C29.3334 28.1398 28.1395 29.3337 26.6667 29.3337H21.3334C19.8607 29.3337 18.6667 28.1398 18.6667 26.667V21.3337C18.6667 19.8609 19.8607 18.667 21.3334 18.667Z" stroke="#4F008C" stroke-width="2" stroke-linecap="round" stroke-linejoin="round"/>
</svg>
