<svg width="30" height="26" viewBox="0 0 30 26" fill="none" xmlns="http://www.w3.org/2000/svg">
<path d="M20.3332 25V22.3333C20.3332 20.9188 19.7713 19.5623 18.7711 18.5621C17.7709 17.5619 16.4143 17 14.9998 17H6.99984C5.58535 17 4.2288 17.5619 3.2286 18.5621C2.22841 19.5623 1.6665 20.9188 1.6665 22.3333V25M28.3332 24.9998V22.3332C28.3323 21.1515 27.939 20.0035 27.215 19.0696C26.491 18.1357 25.4773 17.4686 24.3332 17.1732M20.3332 1.17318C21.4804 1.46691 22.4972 2.13411 23.2234 3.06959C23.9495 4.00507 24.3436 5.15562 24.3436 6.33984C24.3436 7.52407 23.9495 8.67462 23.2234 9.6101C22.4972 10.5456 21.4804 11.2128 20.3332 11.5065M16.3332 6.33333C16.3332 9.27885 13.9454 11.6667 10.9998 11.6667C8.05432 11.6667 5.6665 9.27885 5.6665 6.33333C5.6665 3.38781 8.05432 1 10.9998 1C13.9454 1 16.3332 3.38781 16.3332 6.33333Z" stroke="#4F008C" stroke-width="2" stroke-linecap="round" stroke-linejoin="round"/>
</svg>
