<svg width="14" height="14" viewBox="0 0 14 14" fill="none" xmlns="http://www.w3.org/2000/svg">
<path opacity="0.35" d="M13 3.25H6.25M8.5 10.75H1.75M8.5 10.75C8.5 11.9926 9.50736 13 10.75 13C11.9926 13 13 11.9926 13 10.75C13 9.50736 11.9926 8.5 10.75 8.5C9.50736 8.5 8.5 9.50736 8.5 10.75ZM5.5 3.25C5.5 4.49264 4.49264 5.5 3.25 5.5C2.00736 5.5 1 4.49264 1 3.25C1 2.00736 2.00736 1 3.25 1C4.49264 1 5.5 2.00736 5.5 3.25Z" stroke="#DBB6FC" stroke-width="1.5" stroke-linecap="round" stroke-linejoin="round"/>
</svg>
