<svg width="36" height="36" viewBox="0 0 36 36" fill="none" xmlns="http://www.w3.org/2000/svg">
<path d="M9.6665 26.3333L12.1665 23.8333M14.2498 19.25L16.3332 17.1667M16.7498 21.75L18.8332 19.6667M22.9998 10.5L19.6665 13.8333H24.6665L21.3332 17.1667M13.2499 24.9167C13.4357 25.1031 13.6565 25.2511 13.8996 25.352C14.1427 25.4529 14.4033 25.5049 14.6665 25.5049C14.9298 25.5049 15.1904 25.4529 15.4335 25.352C15.6766 25.2511 15.8974 25.1031 16.0832 24.9167L17.9999 23L12.9999 18L11.0832 19.9167C10.8967 20.1025 10.7488 20.3233 10.6479 20.5664C10.5469 20.8095 10.495 21.0701 10.495 21.3333C10.495 21.5966 10.5469 21.8572 10.6479 22.1003C10.7488 22.3434 10.8967 22.5642 11.0832 22.75L13.2499 24.9167Z" stroke="#060B0F" stroke-width="1.5" stroke-linecap="round" stroke-linejoin="round"/>
</svg>
