<svg width="36" height="36" viewBox="0 0 36 36" fill="none" xmlns="http://www.w3.org/2000/svg">
<path d="M16.5834 25.5C16.7229 25.7537 16.9279 25.9653 17.1771 26.1127C17.4263 26.26 17.7105 26.3378 18 26.3378C18.2896 26.3378 18.5738 26.26 18.823 26.1127C19.0722 25.9653 19.2772 25.7537 19.4167 25.5M13 14.6667C13 13.3406 13.5268 12.0688 14.4645 11.1311C15.4021 10.1935 16.6739 9.66667 18 9.66667C19.3261 9.66667 20.5979 10.1935 21.5355 11.1311C22.4732 12.0688 23 13.3406 23 14.6667C23 20.5 25.5 22.1667 25.5 22.1667H10.5C10.5 22.1667 13 20.5 13 14.6667Z" stroke="#060B0F" stroke-width="1.5" stroke-linecap="round" stroke-linejoin="round"/>
</svg>
