<svg width="32" height="32" viewBox="0 0 32 32" fill="none" xmlns="http://www.w3.org/2000/svg">
<path d="M16.2933 2.6665H15.7067C14.9994 2.6665 14.3211 2.94746 13.8211 3.44755C13.321 3.94765 13.04 4.62593 13.04 5.33317V5.57317C13.0395 6.0408 12.9161 6.50009 12.6821 6.90495C12.448 7.30982 12.1117 7.64602 11.7067 7.87984L11.1333 8.21317C10.728 8.44722 10.2681 8.57044 9.8 8.57044C9.3319 8.57044 8.87205 8.44722 8.46667 8.21317L8.26667 8.1065C7.65476 7.75352 6.92779 7.65776 6.24534 7.84025C5.56289 8.02273 4.98074 8.46855 4.62667 9.07984L4.33334 9.5865C3.98035 10.1984 3.88459 10.9254 4.06708 11.6078C4.24957 12.2903 4.69538 12.8724 5.30667 13.2265L5.50667 13.3598C5.9097 13.5925 6.24483 13.9266 6.47874 14.3289C6.71265 14.7313 6.83719 15.1878 6.84 15.6532V16.3332C6.84187 16.8031 6.71954 17.2651 6.48539 17.6725C6.25125 18.0799 5.91361 18.4182 5.50667 18.6532L5.30667 18.7732C4.69538 19.1272 4.24957 19.7094 4.06708 20.3918C3.88459 21.0743 3.98035 21.8013 4.33334 22.4132L4.62667 22.9198C4.98074 23.5311 5.56289 23.9769 6.24534 24.1594C6.92779 24.3419 7.65476 24.2462 8.26667 23.8932L8.46667 23.7865C8.87205 23.5525 9.3319 23.4292 9.8 23.4292C10.2681 23.4292 10.728 23.5525 11.1333 23.7865L11.7067 24.1198C12.1117 24.3537 12.448 24.6899 12.6821 25.0947C12.9161 25.4996 13.0395 25.9589 13.04 26.4265V26.6665C13.04 27.3737 13.321 28.052 13.8211 28.5521C14.3211 29.0522 14.9994 29.3332 15.7067 29.3332H16.2933C17.0006 29.3332 17.6789 29.0522 18.179 28.5521C18.6791 28.052 18.96 27.3737 18.96 26.6665V26.4265C18.9605 25.9589 19.0839 25.4996 19.318 25.0947C19.552 24.6899 19.8884 24.3537 20.2933 24.1198L20.8667 23.7865C21.2721 23.5525 21.7319 23.4292 22.2 23.4292C22.6681 23.4292 23.128 23.5525 23.5333 23.7865L23.7333 23.8932C24.3452 24.2462 25.0722 24.3419 25.7547 24.1594C26.4371 23.9769 27.0193 23.5311 27.3733 22.9198L27.6667 22.3998C28.0197 21.7879 28.1154 21.061 27.9329 20.3785C27.7504 19.6961 27.3046 19.1139 26.6933 18.7598L26.4933 18.6532C26.0864 18.4182 25.7488 18.0799 25.5146 17.6725C25.2805 17.2651 25.1581 16.8031 25.16 16.3332V15.6665C25.1581 15.1966 25.2805 14.7346 25.5146 14.3272C25.7488 13.9198 26.0864 13.5814 26.4933 13.3465L26.6933 13.2265C27.3046 12.8724 27.7504 12.2903 27.9329 11.6078C28.1154 10.9254 28.0197 10.1984 27.6667 9.5865L27.3733 9.07984C27.0193 8.46855 26.4371 8.02273 25.7547 7.84025C25.0722 7.65776 24.3452 7.75352 23.7333 8.1065L23.5333 8.21317C23.128 8.44722 22.6681 8.57044 22.2 8.57044C21.7319 8.57044 21.2721 8.44722 20.8667 8.21317L20.2933 7.87984C19.8884 7.64602 19.552 7.30982 19.318 6.90495C19.0839 6.50009 18.9605 6.0408 18.96 5.57317V5.33317C18.96 4.62593 18.6791 3.94765 18.179 3.44755C17.6789 2.94746 17.0006 2.6665 16.2933 2.6665Z" stroke="#4F008C" stroke-width="2" stroke-linecap="round" stroke-linejoin="round"/>
<path d="M16 19.9998C18.2091 19.9998 20 18.209 20 15.9998C20 13.7907 18.2091 11.9998 16 11.9998C13.7909 11.9998 12 13.7907 12 15.9998C12 18.209 13.7909 19.9998 16 19.9998Z" stroke="#4F008C" stroke-width="2" stroke-linecap="round" stroke-linejoin="round"/>
</svg>
