<svg width="14" height="14" viewBox="0 0 14 14" fill="none" xmlns="http://www.w3.org/2000/svg">
<path d="M7 13C6.21207 13 5.43185 12.8448 4.7039 12.5433C3.97595 12.2418 3.31451 11.7998 2.75736 11.2426C2.20021 10.6855 1.75825 10.0241 1.45672 9.2961C1.15519 8.56815 1 7.78793 1 7C1 6.21207 1.15519 5.43185 1.45672 4.7039C1.75825 3.97595 2.20021 3.31451 2.75736 2.75736C3.31451 2.20021 3.97595 1.75825 4.7039 1.45672C5.43185 1.15519 6.21207 1 7 1M7 13C7.78793 13 8.56815 12.8448 9.2961 12.5433C10.0241 12.2418 10.6855 11.7998 11.2426 11.2426C11.7998 10.6855 12.2418 10.0241 12.5433 9.2961C12.8448 8.56815 13 7.78793 13 7C13 6.21207 12.8448 5.43185 12.5433 4.7039C12.2418 3.97595 11.7998 3.31451 11.2426 2.75736C10.6855 2.20021 10.0241 1.75825 9.2961 1.45672C8.56815 1.15519 7.78793 1 7 1M7 13V1M7 5L10.1 1.9M7 8.53333L11.9133 3.62M7 12.0667L12.9 6.16667" stroke="#131C25" stroke-width="1.33" stroke-linecap="round" stroke-linejoin="round"/>
</svg>
